<?xml version="1.0" standalone="no"?>
<!DOCTYPE svg PUBLIC "-//W3C//DTD SVG 1.0//EN" "http://www.w3.org/TR/2001/REC-SVG-20010904/DTD/svg10.dtd">
<svg xmlns="http://www.w3.org/2000/svg" xmlns:xlink="http://www.w3.org/1999/xlink" id="body_1" width="110" height="107">

<g transform="matrix(0.06444054 0 0 0.06457453 0 0)">
	<g transform="matrix(0.1333594 0 0 -0.1333065 0 1657)">
	</g>
    <path transform="matrix(0.1333594 0 0 -0.1333065 0 1657)"  d="M7890 12420L7765 12414L7550 12308L7335 12202L7194 12018L7052 11833L7007 11664L6962 11494L6976 11369C 6983 11301 6992 11228 6995 11208L6995 11208L7000 11170L6709 11170L6418 11170L6306 11094C 6245 11052 6100 10946 5984 10859L5984 10859L5773 10700L5532 10700C 5399 10700 5290 10697 5290 10694C 5290 10691 5328 10647 5375 10597L5375 10597L5461 10506L5618 10459L5775 10411L6027 10410L6278 10410L6355 10451C 6500 10529 6451 10482 6218 10317C 6143 10264 6035 10184 5978 10139C 5877 10058 5627 9842 5623 9831C 5621 9828 5639 9814 5661 9802C 5684 9789 5698 9775 5694 9771C 5689 9767 5615 9744 5530 9720C 5445 9696 5370 9674 5363 9671C 5346 9662 5172 9444 5128 9376C 5107 9343 5090 9307 5090 9295C 5090 9274 5097 9272 5228 9259L5228 9259L5365 9245L5275 9239C 5226 9235 5143 9232 5091 9231C 4998 9230 4997 9230 5015 9210C 5031 9192 5116 9160 5240 9125C 5288 9112 5290 9111 5255 9115C 5098 9132 4907 9150 4906 9148C 4892 9126 4760 8889 4760 8886C 4760 8883 4792 8859 4832 8831C 4893 8788 4900 8780 4878 8780C 4843 8780 4766 8726 4621 8600L4621 8600L4500 8495L4633 8492L4766 8489L4790 8445C 4803 8421 4812 8399 4810 8397C 4807 8395 4782 8379 4754 8362L4754 8362L4703 8330L4533 8330L4362 8330L4292 8233C 4210 8117 4147 8020 4097 7929L4097 7929L4060 7863L4040 7565L4019 7268L4118 7166C 4196 7086 4220 7054 4233 7015C 4250 6966 4397 6709 4425 6680C 4438 6668 4451 6669 4532 6688C 4583 6700 4667 6719 4718 6731L4718 6731L4810 6752L4810 6795L4810 6839L4718 6893C 4632 6944 4552 7010 4577 7010C 4593 7010 4753 6907 4870 6822C 5400 6436 5577 6333 5920 6209C 6016 6174 6117 6131 6144 6113L6144 6113L6193 6080L6226 6099L6259 6119L6357 6085C 6563 6015 6641 5981 6694 5937L6694 5937L6724 5913L6758 5937C 6777 5949 6796 5960 6799 5960C 6802 5960 6815 5942 6828 5920L6828 5920L6851 5880L6792 5880L6733 5880L6599 5728L6464 5575L6280 5563C 5945 5541 5411 5520 5023 5514L5023 5514L4640 5507L4640 5553C 4640 5584 4636 5600 4628 5599C 4621 5599 4582 5593 4541 5587L4541 5587L4467 5575L4392 5445C 4312 5304 4275 5250 3957 4793L3957 4793L3747 4491L3706 4516C 3408 4697 3077 4813 2731 4856C 2595 4873 2292 4875 2170 4860C 1685 4800 1291 4635 905 4331C 807 4254 606 4051 528 3950C 246 3585 88 3210 19 2745C -1 2611 1 2244 23 2100C 106 1561 332 1107 708 727C 1088 342 1554 107 2100 23C 2244 1 2611 -1 2745 19C 3055 65 3312 146 3568 280C 4207 615 4674 1229 4821 1928C 4873 2177 4887 2504 4855 2745C 4782 3299 4539 3786 4137 4182L4137 4182L4019 4299L4232 4602C 4442 4901 4533 5020 4549 5020C 4560 5020 4614 4897 4772 4515C 4995 3978 5340 3099 5340 3069C 5340 3065 5315 3060 5284 3058L5284 3058L5227 3055L5099 2805L4970 2555L4970 2412L4970 2269L5054 2093L5139 1918L5252 1833C 5314 1786 5390 1727 5420 1701L5420 1701L5475 1653L5612 1646C 5730 1639 5768 1642 5890 1661L5890 1661L6031 1684L6213 1845L6395 2006L6423 2105C 6461 2242 6480 2374 6480 2506C 6480 2604 6482 2618 6498 2623C 6507 2625 6538 2637 6567 2648L6567 2648L6619 2669L6635 2620L6652 2570L6711 2570L6770 2570L6770 2637C 6770 2714 6781 2710 6799 2628L6799 2628L6811 2570L6870 2570C 6902 2570 6964 2575 7007 2581C 7113 2595 7342 2649 7357 2664C 7374 2680 7457 2938 7484 3060L7484 3060L7508 3165L7462 3207C 7381 3279 7379 3279 7317 3226C 7287 3201 7260 3180 7256 3180C 7253 3180 7250 3211 7250 3249L7250 3249L7250 3317L7158 3299C 7108 3288 7065 3282 7063 3284C 7060 3286 7066 3300 7075 3314C 7096 3345 7090 3355 7042 3371C 6976 3392 6890 3440 6890 3455C 6890 3475 6900 3474 6930 3450C 6986 3407 6949 3376 7830 4200C 8324 4663 8504 4824 8522 4818C 8527 4816 8575 4734 8630 4635L8630 4635L8729 4456L8627 4350C 8292 4006 8083 3620 7980 3159C 7911 2849 7911 2443 7981 2126C 8084 1656 8321 1234 8672 895C 9074 506 9568 276 10124 220C 10272 204 10584 212 10730 235C 11144 299 11556 481 11890 748C 12321 1093 12626 1589 12745 2135C 12785 2323 12795 2424 12794 2650C 12794 2947 12763 3143 12675 3406C 12553 3773 12366 4078 12096 4354C 11437 5025 10454 5254 9559 4945C 9457 4909 9195 4787 9114 4736L9114 4736L9074 4711L9020 4818C 8991 4877 8882 5121 8779 5360L8779 5360L8592 5795L8550 5793C 8466 5789 8360 5694 8360 5623L8360 5623L8360 5590L7891 5590L7422 5590L7360 5474C 7326 5410 7300 5356 7302 5355C 7304 5353 7582 5347 7920 5340C 8369 5332 8537 5325 8542 5317C 8546 5310 8550 5287 8550 5265C 8551 5243 8555 5205 8560 5180C 8564 5155 8567 5134 8566 5132C 8564 5131 8546 5155 8525 5185C 8505 5215 8485 5240 8481 5240C 8478 5240 8407 5173 8325 5090L8325 5090L8175 4940L8123 4940L8070 4940L8070 4891L8070 4841L7883 4678C 7408 4267 7019 3919 6797 3708L6797 3708L6709 3625L6760 3547C 6787 3505 6810 3467 6810 3464C 6810 3458 6686 3560 6682 3570C 6680 3574 6688 3623 6700 3678C 6711 3733 6720 3783 6720 3789C 6720 3796 6693 3800 6647 3800L6647 3800L6574 3800L6515 3716C 6482 3669 6454 3633 6452 3635C 6441 3646 6559 4018 6627 4185C 6731 4442 7307 5487 7501 5771L7501 5771L7560 5857L7560 6007L7560 6156L7474 6280C 7312 6514 7194 6660 6994 6875C 6731 7157 6713 7171 6273 7460L6273 7460L5870 7723L5870 7761L5870 7800L5969 7735C 6023 7699 6072 7670 6078 7670C 6083 7670 6117 7709 6153 7758C 6259 7901 6359 8076 6343 8090C 6339 8094 6301 8110 6260 8126L6260 8126L6185 8155L6289 8164C 6391 8173 6394 8174 6424 8208C 6508 8303 6636 8461 6672 8515C 6694 8548 6711 8570 6709 8564C 6707 8559 6692 8524 6676 8488L6676 8488L6648 8422L6700 8279C 6761 8111 6811 7996 6887 7845C 6941 7739 6949 7728 7149 7520C 7437 7219 7595 7048 7704 6916C 7792 6811 7802 6802 7859 6781C 7893 6769 7972 6736 8036 6708L8036 6708L8151 6657L8186 6589C 8205 6551 8220 6512 8220 6501C 8220 6476 8237 6470 8347 6463C 8431 6458 8440 6459 8440 6474C 8440 6501 8421 6531 8369 6587C 8332 6626 8320 6646 8320 6670C 8320 6700 8323 6697 8391 6615C 8441 6554 8467 6531 8478 6535C 8488 6537 8518 6548 8545 6559L8545 6559L8595 6578L8598 6633L8601 6688L8538 6708L8475 6728L8520 6729C 8545 6730 8581 6733 8601 6736C 8634 6742 8638 6739 8663 6701C 8678 6679 8690 6658 8690 6656C 8690 6654 8632 6598 8562 6532L8562 6532L8434 6413L8359 6406C 8318 6402 8278 6395 8270 6390C 8260 6384 8254 6335 8247 6201L8247 6201L8237 6020L8274 5965L8310 5910L8373 5934L8435 5957L8440 6077L8445 6196L8593 6335C 8675 6412 8751 6481 8762 6488C 8780 6501 8782 6501 8777 6484C 8764 6440 8730 6174 8719 6030C 8713 5945 8710 5801 8713 5711L8713 5711L8718 5547L8764 5501L8810 5455L8895 5540C 9017 5661 9044 5699 9172 5935C 9286 6145 9287 6146 9308 6265C 9320 6331 9332 6400 9336 6418L9336 6418L9343 6450L9281 6450C 9223 6450 9220 6451 9214 6478C 9200 6535 9160 6605 9131 6621C 9094 6642 9012 6800 9032 6811C 9049 6821 9163 6850 9167 6846C 9169 6844 9149 6817 9124 6785L9124 6785L9076 6727L9116 6697C 9199 6632 9249 6572 9256 6530L9256 6530L9263 6490L9419 6490L9576 6490L9603 6574L9631 6658L9718 6634C 9766 6621 9811 6610 9817 6610C 9827 6610 9830 6633 9830 6695L9830 6695L9830 6780L9773 6781L9715 6781L9590 6937L9465 7093L9315 7125C 9160 7159 8992 7202 8858 7244L8858 7244L8781 7268L8423 7617C 8226 7810 8025 8004 7975 8049C 7896 8122 7751 8237 7711 8259C 7699 8266 7701 8291 7718 8421C 7760 8723 7780 8928 7787 9105L7787 9105L7793 9284L7910 9495C 7974 9610 8037 9721 8048 9740C 8068 9771 8070 9789 8070 9913L8070 9913L8070 10050L8030 10130L7990 10209L7923 10212L7855 10215L7908 10249C 7936 10267 7960 10285 7960 10289C 7960 10293 7924 10305 7880 10315C 7835 10325 7797 10336 7795 10340C 7790 10348 7827 10410 7838 10410C 7842 10410 7869 10389 7898 10364C 7949 10319 7952 10318 7970 10335C 7981 10345 7990 10357 7990 10361C 7990 10366 7942 10425 7882 10492C 7650 10757 7538 10900 7480 11003L7480 11003L7447 11062L7479 11093L7511 11125L7543 11088C 7561 11068 7676 10931 7800 10785L7800 10785L8025 10519L8030 10809L8035 11100L8090 11145C 8120 11170 8148 11190 8152 11190C 8156 11190 8160 11009 8159 10788L8159 10788L8159 10385L8242 10358C 8288 10344 8371 10322 8427 10309C 8528 10286 8529 10286 8564 10305L8564 10305L8600 10325L8600 10408C 8600 10487 8602 10494 8636 10546C 8656 10576 8676 10603 8682 10606C 8687 10610 8680 10624 8666 10639L8666 10639L8639 10667L8724 10726L8809 10785L8810 10843L8810 10900L8850 10900C 8872 10900 8890 10903 8890 10907C 8890 10910 8878 10947 8864 10989C 8850 11030 8832 11114 8825 11175C 8813 11275 8813 11286 8828 11299C 8870 11333 8917 11343 9049 11348L9049 11348L9183 11353L9176 11434C 9170 11508 9140 11648 9095 11805C 9078 11863 9071 11872 8856 12088L8856 12088L8635 12310L8555 12335C 8511 12348 8416 12375 8344 12394C 8202 12433 8183 12434 7890 12420zM8568 12065L8748 11940L8819 11831C 8929 11662 8958 11576 8908 11566C 8895 11563 8772 11550 8635 11536L8635 11536L8385 11511L8135 11426L7885 11342L7730 11331C 7645 11325 7516 11318 7445 11314L7445 11314L7314 11307L7267 11341C 7241 11359 7220 11376 7220 11379C 7220 11383 7233 11430 7249 11485C 7287 11618 7335 11733 7407 11860L7407 11860L7467 11965L7656 12077L7845 12189L8117 12189L8389 12190L8568 12065zM7651 10553C 7739 10461 7770 10420 7750 10420C 7730 10420 7605 10453 7597 10460C 7592 10464 7596 10482 7605 10500L7605 10500L7621 10532L7566 10590C 7505 10654 7488 10697 7538 10662C 7553 10651 7604 10602 7651 10553zM6808 10623L6805 10587L6680 10554C 6611 10536 6538 10515 6518 10506C 6474 10487 6466 10486 6476 10501C 6480 10508 6535 10537 6599 10567C 6663 10596 6733 10629 6755 10640C 6810 10666 6812 10665 6808 10623zM7735 10358C 7715 10346 7458 10288 7452 10294C 7450 10296 7466 10308 7486 10321C 7534 10351 7609 10368 7690 10369C 7744 10369 7752 10367 7735 10358zM7364 10108C 7331 10051 7140 9864 7140 9888C 7140 9901 7349 10120 7362 10120C 7367 10120 7368 10114 7364 10108zM7115 9403C 7094 9344 7060 9159 7032 8965C 7024 8909 7023 8913 7016 9048C 7009 9173 7006 9190 6991 9186C 6982 9183 6946 9174 6910 9165C 6874 9156 6837 9147 6827 9144C 6811 9139 6809 9144 6812 9180L6812 9180L6815 9222L6930 9270L7045 9318L7048 9394L7051 9470L7094 9470L7138 9470L7115 9403zM7088 8290C 7088 8271 7082 8233 7075 8205C 7063 8157 7062 8161 7062 8290C 7062 8419 7063 8423 7075 8375C 7082 8348 7088 8309 7088 8290zM5487 8294C 5513 8274 5592 8201 5662 8133L5662 8133L5788 8007L5737 7924L5685 7841L5605 7838L5525 7835L5565 7816C 5587 7806 5621 7791 5640 7781L5640 7781L5675 7765L5568 7762L5460 7759L5460 7720C 5460 7673 5450 7674 5617 7700C 5688 7711 5754 7722 5764 7723C 5781 7725 5783 7718 5781 7643L5781 7643L5779 7562L5897 7499C 6233 7321 6566 7086 6848 6829L6848 6829L6993 6696L6958 6666C 6938 6649 6851 6572 6765 6495C 6527 6282 6481 6256 6480 6332C 6479 6364 6469 6372 6053 6650C 5592 6958 5431 7073 5331 7166C 5249 7242 5050 7497 5050 7527C 5050 7568 5098 7785 5125 7866C 5185 8047 5312 8267 5383 8310C 5426 8337 5431 8336 5487 8294zM7283 7778C 7377 7685 7451 7610 7446 7610C 7435 7610 7338 7687 7171 7829L7171 7829L7048 7933L7054 7978C 7057 8003 7060 8030 7060 8039C 7060 8048 7072 8030 7086 8000C 7106 7957 7148 7910 7283 7778zM4239 7540C 4268 7364 4272 7354 4351 7265C 4443 7160 4510 7071 4510 7054C 4510 7024 4471 7043 4419 7098C 4389 7129 4325 7214 4278 7285L4278 7285L4192 7415L4198 7585C 4202 7711 4206 7743 4211 7710C 4216 7685 4228 7609 4239 7540zM7660 7479C 7720 7438 7869 7357 8010 7288C 8355 7118 8373 7103 8214 7113C 8134 7118 8107 7124 8056 7149C 7983 7185 7852 7283 7670 7438C 7523 7564 7489 7594 7530 7567C 7544 7558 7602 7518 7660 7479zM9535 6793C 9525 6663 9534 6673 9423 6666C 9369 6662 9310 6656 9293 6653C 9260 6648 9260 6648 9260 6687L9260 6687L9260 6726L9348 6708C 9396 6698 9442 6690 9450 6690C 9460 6690 9477 6722 9500 6780C 9519 6829 9536 6870 9538 6870C 9540 6870 9538 6835 9535 6793zM8862 6669C 8932 6628 9008 6553 9081 6453C 9114 6407 9145 6370 9149 6370C 9154 6370 9177 6377 9200 6385C 9223 6393 9246 6400 9251 6400C 9276 6400 9251 6255 9198 6089C 9164 5987 9158 5977 9045 5832L9045 5832L8926 5680L8848 5680L8770 5680L8770 5878L8771 6075L8834 6326L8897 6577L8847 6638C 8820 6672 8801 6700 8804 6700C 8807 6700 8833 6686 8862 6669zM6273 5302C 6284 5285 6207 5130 6194 5143C 6192 5145 6200 5170 6211 5199C 6222 5229 6229 5255 6226 5258C 6223 5260 6159 5269 6083 5276C 6007 5283 5938 5290 5930 5292C 5922 5293 5980 5297 6060 5300C 6140 5303 6219 5307 6237 5308C 6254 5309 6271 5307 6273 5302zM5585 5256C 5591 5254 5569 5247 5538 5240C 5507 5233 5476 5224 5470 5220C 5461 5214 5468 5179 5498 5086L5498 5086L5537 4960L5416 4884C 5350 4841 5254 4774 5204 4734C 5104 4654 5023 4600 5004 4600C 4997 4600 4985 4619 4977 4643C 4969 4666 4928 4774 4886 4884C 4791 5132 4770 5195 4770 5236L4770 5236L4770 5268L5173 5263C 5394 5261 5580 5257 5585 5256zM10578 4770C 11482 4672 12215 4037 12435 3161C 12480 2977 12494 2859 12494 2645C 12494 2501 12489 2414 12476 2335C 12400 1865 12212 1487 11891 1157C 11705 967 11540 846 11305 730C 10753 456 10097 436 9533 676C 8844 968 8358 1594 8250 2327C 8215 2568 8224 2857 8275 3105C 8303 3238 8376 3447 8445 3587C 8542 3786 8702 4012 8838 4144L8838 4144L8878 4182L8903 4139C 8917 4115 8986 3989 9057 3860C 9200 3601 9489 3142 9608 2984C 9675 2896 9706 2866 9844 2759C 10042 2604 10180 2511 10265 2476L10265 2476L10330 2448L10405 2515L10480 2582L10480 2658L10480 2734L10418 2797L10356 2860L10258 2860L10161 2860L9954 3088C 9715 3351 9766 3266 9414 3995C 9206 4426 9202 4435 9222 4451C 9258 4479 9449 4579 9533 4614C 9743 4700 9901 4739 10175 4773C 10242 4782 10487 4779 10578 4770zM2680 4560C 2923 4530 3166 4459 3375 4355C 3447 4320 3521 4281 3541 4268L3541 4268L3578 4245L3357 3930C 3236 3757 3072 3523 2993 3411L2993 3411L2850 3207L2567 3073L2285 2939L2140 2791C 2041 2691 1982 2621 1953 2573L1953 2573L1911 2502L1956 2354C 1980 2273 2000 2205 2000 2203C 2000 2202 2016 2200 2035 2200L2035 2200L2070 2200L2070 2140C 2070 2081 2070 2080 2098 2080C 2134 2080 2150 2064 2150 2028L2150 2028L2150 2000L2047 2000L1945 2000L1902 2067C 1879 2105 1852 2149 1841 2165L1841 2165L1822 2195L1865 2305L1907 2415L1886 2438L1865 2461L1828 2343C 1807 2278 1790 2217 1790 2207C 1790 2198 1810 2148 1834 2096C 1872 2013 1882 2001 1911 1992C 1986 1967 2052 1958 2184 1952L2184 1952L2323 1945L2343 1893L2362 1841L2412 1861C 2440 1872 2463 1879 2465 1878C 2469 1872 2426 1670 2421 1670C 2418 1670 2393 1702 2365 1739C 2338 1777 2314 1807 2312 1805C 2310 1803 2320 1765 2334 1719C 2348 1674 2358 1635 2356 1633C 2354 1631 2326 1619 2294 1607L2294 1607L2235 1584L2232 1467L2229 1351L2312 1311C 2358 1290 2396 1272 2397 1273C 2398 1274 2370 1299 2334 1328L2334 1328L2270 1380L2270 1443L2270 1505L2402 1570C 2522 1629 2612 1692 2597 1706C 2594 1709 2570 1702 2544 1691C 2518 1679 2495 1672 2492 1674C 2485 1681 2521 1819 2531 1826C 2536 1829 2566 1810 2597 1783L2597 1783L2654 1735L2621 1796C 2581 1872 2535 1920 2504 1920C 2482 1920 2480 1924 2480 1965L2480 1965L2480 2010L2532 1989C 2561 1978 2588 1966 2592 1964C 2596 1961 2600 1977 2600 1999L2600 1999L2600 2040L2660 2040L2720 2040L2720 2080L2720 2120L2785 2120C 2821 2120 2850 2124 2850 2129C 2850 2134 2841 2159 2830 2185C 2803 2247 2804 2250 2845 2250L2845 2250L2881 2250L2876 2323C 2873 2362 2865 2471 2859 2563L2859 2563L2848 2731L2875 2751C 2905 2775 2985 2880 3192 3165C 3271 3275 3393 3438 3461 3527C 3530 3615 3642 3767 3710 3864C 3779 3960 3840 4039 3846 4039C 3865 4040 4070 3821 4146 3720C 4374 3415 4518 3054 4560 2680C 4576 2540 4568 2205 4546 2085C 4489 1777 4388 1518 4230 1276C 4136 1132 4058 1037 3935 915C 3245 234 2180 107 1342 604C 1064 769 796 1033 621 1314C 236 1931 198 2721 520 3375C 834 4013 1422 4444 2123 4550C 2263 4571 2546 4576 2680 4560zM6107 4488C 6101 4386 6060 4229 5970 3960C 5915 3793 5807 3488 5775 3408C 5770 3396 5757 3390 5733 3390C 5690 3390 5667 3378 5641 3341L5641 3341L5620 3313L5673 3277C 5781 3206 5874 3170 5953 3170L5953 3170L5990 3170L5990 3115C 5990 3066 5988 3060 5969 3060C 5958 3060 5921 3073 5887 3090C 5846 3109 5781 3127 5697 3142L5697 3142L5569 3165L5453 3456L5337 3748L5440 3861C 5530 3962 5771 4257 5901 4427C 5937 4473 5966 4497 6021 4528C 6062 4550 6099 4569 6104 4569C 6109 4570 6110 4533 6107 4488zM6035 3310C 6082 3292 6120 3276 6120 3274C 6120 3272 6092 3270 6058 3270L6058 3270L5995 3270L5947 3331L5898 3392L5922 3417L5945 3442L5948 3392L5951 3342L6035 3310zM6676 3264C 6931 3162 6920 3167 6920 3157C 6920 3148 6703 3157 6688 3166C 6684 3169 6683 3177 6687 3185C 6690 3193 6689 3207 6686 3215C 6681 3229 6674 3227 6643 3205L6643 3205L6605 3180L6602 3226L6599 3271L6519 3268C 6476 3266 6440 3267 6440 3270C 6440 3277 6479 3340 6483 3340C 6485 3340 6571 3306 6676 3264zM2713 3023L2664 2945L2562 2933C 2507 2927 2435 2916 2404 2911C 2372 2905 2345 2901 2344 2903C 2339 2907 2502 3003 2579 3041C 2640 3071 2751 3110 2759 3104C 2761 3102 2740 3066 2713 3023zM6645 3031C 6624 2988 6610 2947 6612 2932C 6615 2907 6618 2909 6681 2975C 6718 3014 6761 3061 6778 3080L6778 3080L6810 3115L6775 3045C 6756 3007 6737 2956 6732 2933C 6720 2881 6711 2883 6880 2910C 7027 2934 7158 2966 7307 3014C 7366 3034 7416 3048 7418 3046C 7420 3044 7416 3015 7409 2981C 7402 2941 7392 2919 7381 2916C 7284 2887 5968 2660 5899 2660C 5878 2660 5688 2741 5695 2748C 5696 2750 5801 2764 5928 2779C 6054 2795 6163 2810 6168 2814C 6174 2817 6181 2834 6185 2850C 6189 2866 6195 2882 6199 2884C 6203 2887 6237 2880 6275 2869L6275 2869L6345 2850L6433 2942C 6522 3035 6530 3036 6489 2946L6489 2946L6471 2905L6496 2902C 6535 2897 6549 2906 6566 2945C 6581 2982 6671 3112 6677 3106C 6679 3105 6664 3070 6645 3031zM7090 2738L7090 2695L7030 2698L6970 2702L6970 2741L6970 2780L7030 2780L7090 2780L7090 2738zM5772 2604C 5804 2600 5834 2592 5839 2586C 5849 2572 5873 2500 5868 2495C 5867 2494 5816 2503 5755 2516C 5695 2529 5642 2540 5639 2540C 5636 2540 5621 2508 5607 2469L5607 2469L5581 2398L5613 2358C 5683 2271 5732 2271 5838 2361C 5910 2421 5910 2421 5910 2392C 5910 2353 5859 2277 5809 2240C 5741 2191 5693 2200 5588 2278L5588 2278L5540 2314L5540 2395L5540 2476L5593 2548C 5643 2618 5646 2620 5680 2616C 5699 2613 5741 2608 5772 2604zM5201 2348C 5213 2326 5207 2190 5193 2167C 5185 2154 5151 2281 5150 2326C 5150 2375 5180 2388 5201 2348zM5410 1985C 5474 1921 5474 1920 5445 1920C 5419 1920 5367 1943 5295 1986C 5277 1997 5278 1999 5306 2024C 5322 2038 5337 2050 5340 2050C 5343 2050 5375 2021 5410 1985z" stroke="none" fill="#000000" fill-rule="nonzero" />
	<g transform="matrix(0.1333594 0 0 -0.1333065 0 1657)">
	</g>
    <path transform="matrix(0.1333594 0 0 -0.1333065 0 1657)"  d="M7920 12131C 7755 12084 7755 12084 7618 11992L7618 11992L7482 11901L7470 11845C 7449 11745 7465 11746 7679 11855L7679 11855L7845 11941L8071 11957L8297 11973L8436 11936C 8512 11915 8582 11897 8590 11894C 8606 11890 8644 11945 8635 11959C 8633 11964 8582 12002 8523 12045L8523 12045L8415 12123L8270 12147C 8190 12159 8116 12172 8105 12174C 8094 12176 8011 12156 7920 12131z" stroke="none" fill="#000000" fill-rule="nonzero" />
	<g transform="matrix(0.1333594 0 0 -0.1333065 0 1657)">
	</g>
    <path transform="matrix(0.1333594 0 0 -0.1333065 0 1657)"  d="M8109 11845C 7792 11794 7545 11706 7460 11613C 7414 11564 7413 11557 7441 11511C 7459 11480 7464 11478 7498 11485C 7518 11489 7633 11527 7752 11571L7752 11571L7968 11650L8232 11665C 8377 11673 8519 11683 8548 11686L8548 11686L8601 11692L8598 11743L8595 11794L8445 11832C 8363 11852 8286 11869 8275 11869C 8264 11868 8189 11858 8109 11845z" stroke="none" fill="#000000" fill-rule="nonzero" />
	<g transform="matrix(0.1333594 0 0 -0.1333065 0 1657)">
	</g>
    <path transform="matrix(0.1333594 0 0 -0.1333065 0 1657)"  d="M10843 4418L10790 4397L10790 4260L10790 4123L10893 4085C 11031 4034 11144 3976 11270 3891L11270 3891L11375 3821L11438 3888C 11509 3964 11560 4035 11560 4060C 11560 4101 11232 4307 11027 4394C 10968 4419 10914 4439 10907 4439C 10900 4438 10871 4429 10843 4418z" stroke="none" fill="#000000" fill-rule="nonzero" />
	<g transform="matrix(0.1333594 0 0 -0.1333065 0 1657)">
	</g>
    <path transform="matrix(0.1333594 0 0 -0.1333065 0 1657)"  d="M718 1967L630 1947L630 1895C 630 1801 704 1634 829 1448C 908 1330 1045 1180 1073 1180C 1084 1180 1144 1231 1207 1293L1207 1293L1322 1406L1258 1468C 1174 1548 1103 1648 995 1838L995 1838L907 1990L856 1989C 828 1988 766 1979 718 1967z" stroke="none" fill="#000000" fill-rule="nonzero" />
	<g transform="matrix(0.1333594 0 0 -0.1333065 0 1657)">
	</g>
    <path transform="matrix(0.1333594 0 0 -0.1333065 0 1657)"  d="M2414 1520C 2345 1481 2307 1435 2320 1409C 2343 1368 2401 1399 2446 1476C 2461 1501 2474 1519 2476 1517C 2478 1516 2473 1474 2466 1424C 2459 1375 2454 1333 2456 1331C 2463 1323 2695 1352 2708 1362C 2714 1368 2720 1387 2720 1405L2720 1405L2720 1438L2648 1424C 2608 1416 2564 1408 2550 1405C 2525 1400 2523 1403 2505 1475C 2495 1516 2482 1550 2476 1550C 2470 1550 2442 1537 2414 1520z" stroke="none" fill="#000000" fill-rule="nonzero" />
	<g transform="matrix(0.1333594 0 0 -0.1333065 0 1657)">
	</g>
    <path transform="matrix(0.1333594 0 0 -0.1333065 0 1657)"  d="M4545 6652L4216 6566L3980 6588C 3851 6600 3704 6613 3653 6616L3653 6616L3561 6623L3511 6545C 3483 6502 3460 6460 3460 6450C 3460 6427 3497 6394 3545 6374C 3642 6334 3641 6336 3560 6330L3560 6330L3485 6324L3540 6299C 3570 6285 3604 6269 3615 6264C 3631 6257 3627 6255 3592 6252L3592 6252L3549 6249L3556 6212C 3559 6192 3572 6155 3583 6130L3583 6130L3605 6085L3680 6078C 3721 6074 3872 6067 4015 6061L4015 6061L4275 6051L4494 6168C 4614 6232 4717 6287 4722 6289C 4727 6291 4720 6274 4706 6251C 4692 6229 4680 6208 4680 6205C 4680 6202 4717 6158 4761 6107C 4870 5985 4941 5889 5046 5730C 5111 5631 5136 5600 5149 5603C 5158 5606 5203 5622 5250 5638C 5347 5672 5430 5688 5430 5672C 5430 5667 5422 5659 5413 5656C 5390 5647 5330 5607 5330 5600C 5330 5597 5544 5594 5805 5592C 6066 5591 6280 5592 6280 5595C 6280 5619 6144 6005 6127 6032C 6096 6078 6024 6118 5876 6174C 5712 6235 5561 6306 5368 6414L5368 6414L5212 6501L5158 6480C 5129 6469 5104 6460 5104 6460C 5103 6460 5104 6488 5107 6523L5107 6523L5112 6585L5007 6663C 4950 6705 4896 6740 4889 6739C 4881 6739 4727 6700 4545 6652zM5010 6418C 4989 6400 4840 6326 4788 6307C 4755 6295 4770 6320 4812 6346C 4875 6386 4992 6440 5015 6440C 5034 6439 5033 6438 5010 6418z" stroke="none" fill="#000000" fill-rule="nonzero" />
	<g transform="matrix(0.1333594 0 0 -0.1333065 0 1657)">
	</g>
    <path transform="matrix(0.1333594 0 0 -0.1333065 0 1657)"  d="M7920 6672C 7920 6658 7976 6577 8017 6533C 8055 6491 8055 6491 8088 6505C 8111 6515 8127 6533 8141 6566C 8152 6591 8160 6613 8158 6614C 8157 6616 8118 6631 8073 6649C 7995 6678 7920 6690 7920 6672z" stroke="none" fill="#000000" fill-rule="nonzero" />
	<g transform="matrix(0.1333594 0 0 -0.1333065 0 1657)">
	</g>
    <path transform="matrix(0.1333594 0 0 -0.1333065 0 1657)"  d="M4313 6019L4261 5999L4311 5887C 4371 5752 4422 5640 4424 5640C 4434 5640 4557 5697 4559 5703C 4563 5716 4387 6040 4376 6039C 4370 6039 4342 6030 4313 6019z" stroke="none" fill="#000000" fill-rule="nonzero" />
	<g transform="matrix(0.1333594 0 0 -0.1333065 0 1657)">
	</g>
    <path transform="matrix(0.1333594 0 0 -0.1333065 0 1657)"  d="M8460 5929C 8295 5851 8229 5790 8324 5803C 8400 5814 8496 5858 8535 5901C 8594 5967 8564 5978 8460 5929z" stroke="none" fill="#000000" fill-rule="nonzero" />
	<g transform="matrix(0.1333594 0 0 -0.1333065 0 1657)">
	</g>
    <path transform="matrix(0.1333594 0 0 -0.1333065 0 1657)"  d="M3870 5614L3870 5508L3934 5401C 3994 5302 4052 5230 4070 5230C 4095 5230 4140 5326 4140 5378C 4140 5386 4146 5390 4153 5387C 4159 5384 4189 5373 4218 5361L4218 5361L4270 5340L4270 5408L4270 5476L4190 5524L4110 5573L4110 5646L4110 5720L3990 5720L3870 5720L3870 5614z" stroke="none" fill="#000000" fill-rule="nonzero" />
	<g transform="matrix(0.1333594 0 0 -0.1333065 0 1657)">
	</g>
    <path transform="matrix(0.1333594 0 0 -0.1333065 0 1657)"  d="M4717 4290C 4691 4247 4656 4170 4639 4119C 4623 4069 4589 3985 4564 3932L4564 3932L4520 3837L4626 3631C 4729 3431 4796 3319 4815 3314C 4821 3312 4875 3370 4936 3442L4936 3442L5048 3572L4995 3729C 4930 3921 4781 4339 4772 4357C 4767 4365 4748 4342 4717 4290z" stroke="none" fill="#000000" fill-rule="nonzero" />
</g>
</svg>